<svg xmlns="http://www.w3.org/2000/svg" width="40" height="50.029" viewBox="0 0 40 50.029"><defs><style>.a{fill:#8999ac;}.b{fill:#ff6868;}</style></defs><g transform="translate(-6.761 -3.93)"><path class="a" d="M17.993,32.063c2.187,0,3.382-1.547,3.382-3.727H14.6C14.6,30.516,15.8,32.063,17.993,32.063Z" transform="translate(8.734 21.897)"/><path class="a" d="M46.254,44.539c-1.926-2.782-5.714-4.413-5.714-16.871,0-12.787-5.152-17.926-9.953-19.16-.45-.123-.775-.288-.775-.809V7.3a3.237,3.237,0,0,0-3.051-3.371A3.228,3.228,0,0,0,23.71,7.3v.4c0,.507-.325.685-.775.809-4.814,1.247-9.953,6.373-9.953,19.16,0,12.458-3.789,14.075-5.714,16.871C6.029,46.334,7.2,48.9,9.255,48.9H44.279C46.317,48.9,47.492,46.32,46.254,44.539Z" transform="translate(0 0)"/></g><circle class="b" cx="5.5" cy="5.5" r="5.5" transform="translate(23 3)"/></svg>